<svg xmlns="http://www.w3.org/2000/svg" viewBox="0 0 340 170" fill-rule="evenodd" clip-rule="evenodd">
<g>
<path fill="#D20000" d="M314.4,47.7c4.8,0.6,9.7,1.7,14.7,3.5c-38.3,11.5-70.9,68.5-109.2,80c2.1-8.7,6.1-27,6.1-27l-1.1,0.8 c0,0-4,18-6.1,26.6h0c32-0.1,61.8-17.6,95.3-5.1c5.2-26.7,10.5-52.3,16.1-75.7c-5.2-1.9-10.3-3.2-15.3-3.8L314.4,47.7z"/>
<path fill="#D20000" d="M278.8,50c6.2-1.2,12.5-2.2,18.8-2.7l0.6-0.7c-6.3,0.4-12.4,1.4-18.6,2.6L278.8,50z"/>
<path fill="#ffffff" d="M48.2,140.5h6.3c2.5,0,3.2-0.8,3.7-3.2c0.5-2.4-0.4-2.6-2.6-2.6h-6.2L48.2,140.5z M46.1,150.1h6 c2.6,0,3.9-0.2,4.5-3c0.5-2.5,0.1-3.2-2.5-3.2h-6.8L46.1,150.1z M40.9,153.8l4.9-22.9h11.4c4.5,0,6.6,0.9,5.5,6 c-0.6,2.6-1.4,4.4-4.4,5.1l0,0.1c3.1,0.4,3.3,2.5,2.7,5.4c-1.1,5.1-3.4,6.4-8.3,6.4"/>
<path fill="#ffffff" d="M68.4,137.8l-0.5,2.1h0.1c1.1-1.8,2.9-2.3,4.8-2.3c3.4,0,3.8,2,3.1,5l-0.3,1.3h-3.6l0.2-0.8 c0.3-1.6,0.4-2.6-1.4-2.6c-2.3,0-3.2,1.3-3.6,3.4l-2.1,9.9h-3.9l3.4-16.1"/>
<path fill="#ffffff" d="M82.5,134.2h-3.9l0.7-3.3h3.9L82.5,134.2z M78.4,153.8h-3.9l3.4-16.1h3.9"/>
<path fill="#ffffff" d="M82.2,137.8h2l0.8-3.6h3.9l-0.8,3.6h6.1l-0.6,2.9h-6.1l-1.7,8.2c-0.3,1.5-0.4,2.1,1.2,2.1 c2.2,0,2.3-1.7,2.6-3.4h3.4c-1,4.9-2.5,6.3-6.7,6.3c-4.2,0-5.3-1-4.4-5l1.8-8.3h-2"/>
<path fill="#ffffff" d="M100.3,134.2h-3.9l0.7-3.3h3.9L100.3,134.2z M96.1,153.8h-3.9l3.4-16.1h3.9"/>
<path fill="#ffffff" d="M110.7,142.2c0.4-1.9-0.6-1.9-2.7-1.9c-2,0-3.5,0-3.9,2.1c-0.3,1.6,0.1,1.6,3.4,1.8 c3.8,0.2,7.2-0.1,6.1,5.1c-0.9,4.3-4.4,4.8-8.5,4.8c-4.4,0-7.3,0-6.2-5.2h3.9c-0.4,2.3,0.1,2.6,2.9,2.6c2.3,0,3.6,0.1,4.1-2.1 c0.3-1.4,0.4-2.1-3.5-2.2c-5.9-0.1-6.8-0.9-5.9-5c0.9-4.4,4.1-4.5,8.3-4.5c3.2,0,6.9,0.1,5.9,4.6"/>
<path fill="#ffffff" d="M121.1,140.2h0.1c1.4-2.4,3.3-2.6,5.6-2.6c4.2,0,5.1,1.7,4.3,5.7l-2.2,10.6H125l2.2-10.2 c0.5-2.3,0.1-3.1-2.3-3.1c-3.4,0-4.2,1.6-4.8,4.5l-1.9,8.8h-3.9l4.9-22.9h3.9"/>
<path fill="#ffffff" d="M147.7,139.1l-1.3,6.2c-1,4.6-0.2,5,4.2,5c4,0,5.5-0.5,6.4-5l1.3-6.2c1-4.3-0.5-4.6-4.4-4.6 C149.3,134.5,148.6,135.5,147.7,139.1 M162.8,139.1l-1.3,6.2c-1.6,7.3-4.7,8.7-11.6,8.7c-7.1,0-9.4-1.2-7.8-8.7l1.3-6.2 c1.5-7.1,4.2-8.4,11.5-8.4C161.4,130.7,164.4,131.7,162.8,139.1"/>
<path fill="#ffffff" d="M168.4,137.8l-0.5,2.1h0.2c1.1-1.8,2.9-2.3,4.8-2.3c3.4,0,3.8,2,3.1,5l-0.3,1.3h-3.6l0.2-0.8 c0.3-1.6,0.4-2.6-1.4-2.6c-2.3,0-3.2,1.3-3.6,3.4l-2.1,9.9h-3.9l3.4-16.1"/>
<polyline fill="#ffffff" points="178.4,153.8 174.5,153.8 177.9,137.8 181.8,137.8"/>
<path fill="#ffffff" d="M193.2,144.1c0.7-3.3,0.3-3.5-2.9-3.5c-3.3,0-3.7,0.7-4.3,3.5H193.2z M196.1,148.7c-1.1,5-4,5.3-8.6,5.3 c-6.1,0-7-2-5.7-8.2c1.2-5.8,2.7-8.3,9.2-8.3c6.6,0,7.1,1.9,5.6,8.9h-11c-0.7,3.5-0.9,4.6,2.6,4.6c2.1,0,3.6,0,4.1-2.4"/>
<path fill="#ffffff" d="M204.2,137.8l-0.5,2.4h0.1c1.4-2.4,3.3-2.6,5.6-2.6c4.2,0,5.1,1.7,4.3,5.7l-2.2,10.6h-3.9l2.2-10.2 c0.5-2.3,0.1-3.1-2.3-3.1c-3.4,0-4.2,1.6-4.8,4.5l-1.9,8.8h-3.9l3.4-16.1"/>
<path fill="#ffffff" d="M215.5,137.8h2l0.8-3.6h3.9l-0.8,3.6h6.1l-0.6,2.9h-6.1L219,149c-0.3,1.5-0.4,2.1,1.2,2.1 c2.2,0,2.3-1.7,2.6-3.4h3.4c-1,4.9-2.5,6.3-6.7,6.3c-4.2,0-5.3-1-4.4-5l1.8-8.3h-2"/>
<path fill="#ffffff" d="M238.3,144.1c0.7-3.3,0.3-3.5-2.9-3.5c-3.3,0-3.7,0.7-4.3,3.5H238.3z M241.1,148.7c-1.1,5-4,5.3-8.6,5.3 c-6.1,0-7-2-5.7-8.2c1.2-5.8,2.7-8.3,9.2-8.3c6.6,0,7.1,1.9,5.6,8.9h-11c-0.7,3.5-0.9,4.6,2.6,4.6c2.1,0,3.6,0,4.1-2.4"/>
<path fill="#ffffff" d="M254.5,144.1c0.7-3.3,0.3-3.5-2.9-3.5c-3.3,0-3.7,0.7-4.3,3.5H254.5z M257.4,148.7c-1.1,5-4,5.3-8.6,5.3 c-6.1,0-7-2-5.7-8.2c1.2-5.8,2.7-8.3,9.2-8.3c6.6,0,7.1,1.9,5.6,8.9h-11c-0.7,3.5-0.9,4.6,2.6,4.6c2.1,0,3.6,0,4.1-2.4"/>
<path fill="#ffffff" d="M265.1,137.8l-0.5,2.1h0.2c1.1-1.8,2.9-2.3,4.8-2.3c3.4,0,3.8,2,3.1,5l-0.3,1.3h-3.6l0.2-0.8 c0.3-1.6,0.4-2.6-1.4-2.6c-2.3,0-3.2,1.3-3.6,3.4l-2.1,9.9h-3.9l3.4-16.1"/>
<path fill="#ffffff" d="M279.2,134.2h-3.9l0.7-3.3h3.9L279.2,134.2z M275,153.8h-3.9l3.4-16.1h3.9"/>
<path fill="#ffffff" d="M284.6,137.8l-0.5,2.4h0.1c1.4-2.4,3.3-2.6,5.6-2.6c4.2,0,5.1,1.7,4.3,5.7l-2.2,10.6H288l2.2-10.2 c0.5-2.3,0.1-3.1-2.3-3.1c-3.4,0-4.2,1.6-4.8,4.5l-1.9,8.8h-3.9l3.4-16.1"/>
<path fill="#ffffff" d="M299.5,145.3c-0.8,3.6-1.2,5.7,2.2,5.7c3.9,0,4.3-1.9,5.1-5.7c0.7-3.4,0.5-4.8-2.8-4.8 C301.3,140.5,300.3,141.3,299.5,145.3 M305.6,151.6L305.6,151.6c-1.5,2.1-3.7,2.5-5.6,2.5c-5.5,0-5.5-3-4.5-7.7c1-4.9,2-8.7,8-8.7 c2.3,0,3.9,0.5,4.5,2.6h0.1l0.4-2.4h3.9l-3.4,16c-1.2,5.8-3.4,7.2-9.2,7.2c-3.9,0-6.7-0.7-5.4-5.5h3.6c-0.5,2.2,0.3,2.5,2.5,2.5 c3.3,0,4.1-0.7,4.7-3.4"/>
<path fill="#ffffff" d="M304,104.5c-3.1,4.8-8.5,8.1-14.2,4.6c-5.8-3.4-4.7-9.2-1.5-13.9c3.4-4.9,8.8-8.4,14.5-5.2 C308.4,93.2,307.3,99.5,304,104.5 M323.5,116.8c-3.8-4-7.7-7.8-11.8-11.5c3.2-7.2,2.6-14.8-3.1-19.2c1.3-3.2,2.6-6.4,4-9.6 c0.6,0.3,1.2,0.6,1.8,0.9c1-3.8,2.1-7.7,3.1-11.6c0,0,0,0,0,0c-2.9,3.1-5.8,6-8.7,8.8c0.6,0.3,1.2,0.6,1.8,0.9 c-2.3,2.7-4.6,5.4-6.9,8c-7.1-2.4-14.5,0-19.8,5.7c-5.6-1.8-11.2-3.5-16.8-4.6c0,0,0,0,0,0c4.4,3,8.8,6.2,13.2,9.7 c-3.4,6.7-2.5,13.6,3.5,18.3c-2.3,4.9-4.5,9.8-6.8,14.8c0,0,0,0,0,0c4-4,7.9-7.9,11.9-11.8c7.3,3.1,14.6,1.1,19.5-4.8 C313.6,112.8,318.6,114.8,323.5,116.8"/>
<path fill="#ffffff" d="M229.9,76l19.6-20l10.7-2.8c0-11.1-10.9-11.6-29.4,7c12.9-25.1,39.9-32.6,38.9-9.8c4.3-1.4,8.4-3.4,12.5-6 c-4.1,5.1-8.6,9.9-14.4,14.3c-2,4.5-5.9,9.4-11.7,14.7l-7.5-2.1l3.1-4.1C243.6,69.4,236.5,72.5,229.9,76"/>
<path fill="#ffffff" d="M270.1,58.7c2.2-1.4,4.9-3.9,8.1-7.7c0.7,5.5,1.8,9.6,3.9,12.2c8.3-1.9,16.9-10.9,22.4-15.4 c-6.8,9.6-15,18.4-25.3,25.9c-0.5,0.3-1.2,0.2-1.9-0.2C272.4,70.7,270.3,65.5,270.1,58.7"/>
<path fill="#ffffff" d="M303,42c0,0,2.1,0.1,5.9-0.6c3.8-0.7,11.2-3.8,11.2-3.8s-2.6,4.4-5,7.5c-2.4,3.1-5.1,5.9-5.1,5.9 s-4.6,0.1-7.9-0.2c-4.1-0.4-6.2-1.2-6.2-1.2s2.3-1.1,4.5-3.9C302.4,43.2,303,42,303,42"/>
<path fill="#ffffff" d="M289.2,25.1c2.6,1.7,1.4,6.7-2.7,11.1c-4.1,4.3-9.6,6.5-12.3,4.7c-2.6-1.7-1.4-6.7,2.7-11.1 C281,25.5,286.5,23.4,289.2,25.1"/>
<path fill="#ffffff" d="M245.7,72.1c7.8,2.2,15.1,4.6,19.6,8c1.4,1,1.6,2.3,0.4,3.9c-8.5,12.8-19.6,23.1-31.7,32.4 c7.6-8.1,14.9-16.7,20.9-27.9c0.5-0.9,0.5-1.4,0-1.7c-8.1-1.3-14.8-4.7-20.5-9.5C237.3,75.2,241.1,73.4,245.7,72.1"/>
<path fill="#ffffff" d="M236.6,82.5c2.1,1.4,4.5,2.6,7.2,3.5c-19.8,20.3-40.8,36.2-62.9,48.7C199.9,120.6,218.5,104.1,236.6,82.5"/>
</g>
</svg>
