<svg  width="300" height="300" viewBox="0 0 300 300" xmlns="http://www.w3.org/2000/svg" xmlns:serif="http://www.serif.com/" fill-rule="evenodd" clip-rule="evenodd" stroke-linejoin="bevel" stroke-miterlimit="10"><path d="M294.58 149.94c0 79.64-64.55 144.2-144.2 144.2-79.63 0-144.19-64.56-144.19-144.2C6.2 70.3 70.75 5.74 150.4 5.74c79.64 0 144.2 64.56 144.2 144.2" fill="#2c598c" serif:id="Layer 9"/><path d="M225.18 135.9c0 43.15-35.25 78.15-78.72 78.15s-78.72-35-78.72-78.16S103 57.74 146.46 57.74s78.72 35 78.72 78.15" fill="#fff" serif:id="White circle"/><path d="M18.01 201.14c37.88-9.27 50.47-13.54 88.57-18.44 10.81-1.28 25.25-4.73 35.52.77 9.3 5.4 10.08 13.03 14.3 22.8 13.67 34.01 29.12 50.8 58.23 72.78-35.67 17.21-75.41 22.46-119.83 4.16-40.56-15.85-68.26-52.27-78.86-81.51l2.07-.56z" fill="#994890" fill-rule="nonzero" serif:id="PFO Purple"/><path d="M132.06 180.65l3.63-3.86 2.18 1.68c.91-2.73 2.32-4.27 4.64-5.95a232.69 232.69 0 0 1 25.11-1.77c11.72.77 24.07 1.4 38.6 1.9l8.6.42-2.08 5-2.92 3.76c-6.96 11.58-27.4 28.3-50.7 31.02a50.37 50.37 0 0 1-2.72-6.59c-4.22-9.76-5-17.4-14.3-22.8a28.35 28.35 0 0 0-9.9-2.68l-.14-.13zM85.46 185.78c-6.06-7.31-9.5-11.14-12.22-20.55 22.39 1.14 39.93 2.3 57.05 2.8-3.86 1.81-7.09 1.54-11.36 4.26.14 3.45.91 5.4 3.5 8.09l-.64.4c-5.44.37-10.58 1.41-15.2 1.91-8 1.18-14.95 2.23-21.13 3.1M161.53 148.36c11.5.36 17.03.63 28.62.77-2.32-1.54-3.86-3.5-2.45-6.17 5.13-10.18 10.94-13.18 18.66-22.03 1.14-1.96 1.9-2.86 2.68-5.18-2.4-.23-3.95.77-5.77 2.32-5.95 4.77-9.04 6.58-15.57 10.08-2.73 1.54-4.27 2.04-6.18 4.22l-2.73-.27c-7.17 6.08-10.8 10.08-16.84 16.12l-.42.14zM122.16 144.5c-6.31-.55-15.08-1.55-13.13-8.63.78-4.13 4.5-5.04 8.77-6.18 17.9-4.27 27.16-5.04 45.28-7.35-1.13.36-2.04 1.13-3.18 1.67-4.9 3.1-8 4.5-13.4 4.91-5.81.36-8.49.86-13.9 2.04-6.3 1.55-10.57 5.68-10.57 11.86-.24.5 0 1.13 0 1.54l.13.14zM69.66 117.43c-1.32 5.04-1.32 7.63-1.68 12.63 10.17-.78 32.15 0 24.7-6.95-7.22-6.18-13.76-5.68-23.02-5.68M183.06 114.2c-16.9-5.4-26.16-7.17-43.64-6.53-27.3.9-40.97 1.27-68 3.85 11.23-31.28 32.48-51.22 66.82-54.08 37.24-2.96 68.76 19.34 80.88 48.4l-5.95 2.96c-13.48.41-21.12 1.68-30.38 5.4h.27z" fill="#ffc400"/><g><path d="M164.2 163.85l113.26-35.2" fill="none" stroke="#1d1d1b" stroke-width="3.5"/><path d="M122.43 180.38c-2.59-2.68-3.36-4.64-3.5-8.09 5.18-3.5 9.04-2.31 13.9-5.8 2.32 1.17 3.86 1.03 6.59.62l12.85-2.31c4.54-.36 6.45-4.09 8.77-8.08 1.54 3.58 2.31 5.9 5.54 7.3l1.18 6.73c-10.18.23-15.22.63-25.26 1.77-2.31 1.68-3.72 3.22-4.63 5.95l-2.18-1.68-3.63 3.86c-3.09-.27-6.95 0-9.9.13l.27-.4zM221.67 155.94l-5.27 17.13h-2.04l-.42 5.67h-1.9l-.27-6.22-.91-.77 6.31-13 2.32-1.13 1.95-2.32.23.64zm-7.31-7.72c0 4-3.78 7.09-6.59 10.54 2.04.27 3.5.4 5.81-.14-1.81 5.18-1.81 9.27-6.45 11.72l-3.86 9.67 3.86 1.91 2.69-.09 11.85 1.9-6.04-3.44 10.3 2.68 9.4-1.82c-6.3-.86-14.44 0-13.66-7.45l-1.91-.4 8.08-17.77 4.27-.77 6.18-12.71-.27-1.46-23.94 7.36.28.27z" fill="#1d1d1b"/><path d="M242.29 138.69c-5.4-3.1-11.36-4.28-18.67-7.73-3.72-1.54-3.86 4.64-7.22 6.45 6.18.5 9.54-1.04 15.71-2.58l5.77 4.63" fill="none" stroke="#1d1d1b" stroke-width="1.05"/><path d="M238.02 140.6l-.14-1.14-5.76-4.63c-6.18 1.54-9.54 3.08-15.72 2.58 3.36-1.81 5.81-2.72 7.22-6.45 7.31 3.45 13.26 4.64 18.67 7.73v.77l5-1.55-.5-1.54c-1.96-1.54-3.73-1.27-6.05-2.05-5.81-1.45-8.13-3.76-12.76-7.22l-.5-5.04c1.9 1.05 3.23 1.05 5.13 2.18 7.72 5.04 12.22 6.32 20.76 10.17l.5 1.46 7.58-2.23-1.54-1.27c-1.91-.27-3.45-.63-4.23-2.32-8.13-3.08-11.85-5.26-18.57-10.67-3.32-2.45-4.86-3.86-8.08-6.3l.5-1.56c2.72.91 4.9 1.55 6.8-1.04-2.67.27-4.63.64-6.17-1.27 1.18-1.18 2.72-.64 4.63 0 .55-.64.77-2.32 1.55-1.95.54.54 1.68 2.09 1.68 1.18 0-2.32 0-4.27-1.68-5.82l-.23-2.95 1.4.41 2.05-2.09 2.18-.36 1.18-1.82-6.95 1.05-19.16-26.16-8.63 7.22 8.08-3.73 5.04 26.25-8.4 1.55 5.04.27 1.96.77-1.32 1.27.54 1.55-5.95 2.95c-17.39.41-24.7 2.45-39.23 9.27-5.55 2.72-9.04 2.72-14.04 5.94-4.9 3.1-7.99 4.5-13.4 4.91-5.81.36-8.49.86-13.9 2.04-6.3 1.55-10.57 5.68-10.57 11.86-.23 6.54 9.4 7.45 15.57 4.77 8.36-3.5 13.9-2.46 22.4-4.27-.1 2.72 0 6.8.4 6.45 7.22-6.95 10.67-11.22 18.4-17.67l2.72.27c1.9-2.18 3.45-2.68 6.18-4.22 6.54-3.5 9.63-5.31 15.57-10.08 1.82-1.55 3.36-2.55 5.77-2.32-.77 2.32-1.54 3.22-2.68 5.18-7.72 8.85-13.53 11.85-18.66 22.02-2.32 4.5 4 7.18 8.62 8.86l.78 1.18 40.56-12.13.36-.27z" fill="#1d1d1b"/><path d="M219.12 104.3h-6.58" fill="none" stroke="#1d1d1b" stroke-width="1.05"/></g><g serif:id="Layer 8"><path d="M59.87 218.45c2.06 2.74 2.8 5.9 2.23 9.47a13.5 13.5 0 0 1-5.53 8.88c-3.2 2.42-6.63 3.4-10.27 2.98a12.26 12.26 0 0 1-8.71-4.97c-2.19-2.9-3-6.13-2.41-9.66.57-3.53 2.5-6.54 5.79-9 3.35-2.53 6.95-3.44 10.79-2.75 3.33.6 6.03 2.28 8.1 5.05zm-1.36.56a6.98 6.98 0 0 0-5.53-2.97c-2.81-.11-5.9 1.1-9.27 3.63-3.45 2.6-5.55 5.32-6.3 8.2a6.84 6.84 0 0 0 1.26 6.08 7.67 7.67 0 0 0 6.02 3.17c2.52.13 5.45-1.06 8.78-3.57 3.61-2.72 5.78-5.45 6.48-8.21.56-2.2.07-4.32-1.44-6.33zM71.2 266.98l-5.42-4.51 1.02-15.23a43 43 0 0 1-1.68-1.36l-.44-.4-4.92 5.9c-1.06 1.27-1.58 2.18-1.56 2.73.01.75.4 1.45 1.16 2.08l.8.66-.47.55-8.7-7.24.46-.56.76.64c.86.72 1.7.95 2.54.7.47-.14 1.19-.79 2.15-1.95l10.93-13.12c1.06-1.28 1.58-2.2 1.56-2.73-.03-.77-.42-1.47-1.2-2.1l-.76-.65.47-.55 7.4 6.16c2.16 1.8 3.62 3.28 4.38 4.44a7.1 7.1 0 0 1 1.16 3.91 5.89 5.89 0 0 1-1.44 3.91 6.17 6.17 0 0 1-3.93 2.24c-1.58.24-3.38-.16-5.4-1.2l-.66 9.32c-.15 2.14-.07 3.7.25 4.72a8.1 8.1 0 0 0 2 3.09l-.46.55zm-5.74-22.45a19.62 19.62 0 0 1 .83.71c1.94 1.61 3.75 2.41 5.43 2.39a5.24 5.24 0 0 0 4.14-1.98 5.45 5.45 0 0 0 1.39-4.08 5.55 5.55 0 0 0-2.16-3.82 17.29 17.29 0 0 0-2.6-1.67l-7.03 8.45zM85.84 274.27l-.36.63-9.82-5.65.36-.62.81.46c.95.55 1.8.67 2.54.36.48-.2 1.11-1 1.9-2.37l8.52-14.8a8.75 8.75 0 0 0 1.1-2.43c.05-.34-.04-.72-.27-1.12a3.7 3.7 0 0 0-1.32-1.3l-.81-.47.36-.62 9.81 5.64-.36.63-.83-.48c-.93-.53-1.77-.65-2.52-.35-.49.2-1.12.99-1.92 2.36l-8.51 14.8a8.76 8.76 0 0 0-1.1 2.43c-.05.35.04.73.29 1.14.33.55.76.98 1.3 1.29l.83.47zM106.52 257.1l-3.66 9.8 5.44 2.03c1.42.52 2.44.66 3.07.42.85-.33 1.57-1.18 2.17-2.57l.67.26-3.22 8.61-.67-.25c.28-1.27.4-2.1.35-2.5-.06-.52-.3-.99-.7-1.41a5.87 5.87 0 0 0-2.16-1.23l-5.45-2.03-3.05 8.16a8.1 8.1 0 0 0-.6 2.05c.01.28.11.53.3.76.2.23.63.48 1.31.73l4.2 1.57c1.4.52 2.46.8 3.16.85.7.04 1.46-.12 2.26-.47a15 15 0 0 0 3.6-2.55l.72.27-4.45 5.41-19.09-7.13.26-.67.87.33c.59.21 1.2.28 1.82.2.46-.05.84-.25 1.12-.58a9.2 9.2 0 0 0 1.1-2.32l6.02-16.09c.58-1.57.79-2.6.6-3.08-.25-.65-.89-1.16-1.91-1.55l-.88-.32.25-.68 19.09 7.13-1.75 5.53-.72-.27c.23-1.4.29-2.4.16-3a3.11 3.11 0 0 0-.96-1.63 8.83 8.83 0 0 0-2.48-1.24l-6.8-2.53zM120.63 261.33l7.1.94 13.43 21.77 2-15.11c.21-1.61.16-2.64-.14-3.09-.4-.6-1.13-.97-2.16-1.1l-.9-.13.09-.71 9.12 1.2-.1.72-.92-.12c-1.1-.15-1.94.08-2.5.69-.33.38-.6 1.3-.8 2.77l-2.91 22.09-.7-.1-14.49-23.39-2.13 16.14c-.21 1.61-.17 2.64.12 3.08.42.61 1.14.98 2.16 1.12l.92.12-.1.71-9.11-1.2.1-.72.9.12c1.12.15 1.96-.08 2.51-.69.34-.37.6-1.3.8-2.76l2.41-18.23a12.07 12.07 0 0 0-1.5-1.99 6.4 6.4 0 0 0-1.62-1.02 6.2 6.2 0 0 0-1.68-.4l.1-.71zM171.9 262.82l.86 6.15-.74.07a7.48 7.48 0 0 0-.8-2.28 3.91 3.91 0 0 0-1.74-1.51c-.7-.3-1.6-.4-2.68-.3l-3.71.34 1.83 20.11c.14 1.62.4 2.61.8 2.98.54.5 1.32.7 2.34.61l.91-.08.07.72-11.17 1.01-.06-.72.93-.08c1.11-.1 1.87-.51 2.28-1.23.24-.44.3-1.4.17-2.87l-1.83-20.11-3.16.28c-1.23.12-2.1.29-2.6.51-.65.31-1.18.83-1.6 1.58a5.76 5.76 0 0 0-.6 2.9l-.73.08-.25-6.2 21.49-1.96zM180.93 261.77l3.08 9.98 5.55-1.7c1.44-.45 2.34-.96 2.69-1.55.47-.76.52-1.88.15-3.35l.69-.2 2.7 8.79-.69.2a10.06 10.06 0 0 0-1.25-2.2c-.35-.36-.82-.6-1.41-.68-.59-.1-1.4.02-2.46.35l-5.56 1.7 2.57 8.33a8.1 8.1 0 0 0 .77 2c.18.2.41.35.7.41.3.07.79 0 1.49-.22l4.28-1.32c1.43-.43 2.44-.85 3.02-1.25.59-.4 1.09-.98 1.5-1.75.54-1 .97-2.4 1.3-4.21l.74-.23-.23 7-19.47 6-.21-.7.9-.27a3.7 3.7 0 0 0 1.56-.95c.33-.32.51-.7.53-1.14a9.15 9.15 0 0 0-.54-2.5l-5.04-16.42c-.5-1.6-.96-2.54-1.4-2.82-.6-.36-1.42-.38-2.47-.06l-.9.28-.2-.69 19.47-5.99 1.98 5.45-.72.22a9.14 9.14 0 0 0-1.71-2.47 3.11 3.11 0 0 0-1.76-.7 8.83 8.83 0 0 0-2.71.52l-6.94 2.14zM203.24 253.13l5.07 9.14 5.08-2.82c1.32-.73 2.09-1.42 2.31-2.06.3-.86.12-1.96-.54-3.31l.63-.35 4.46 8.04-.63.35a10.07 10.07 0 0 0-1.68-1.9 2.44 2.44 0 0 0-1.52-.38c-.6.03-1.37.32-2.34.85l-5.08 2.82 4.23 7.62a8.1 8.1 0 0 0 1.18 1.8c.21.16.47.25.77.26.3 0 .76-.17 1.4-.53l3.92-2.17c1.3-.73 2.2-1.35 2.7-1.86.49-.5.85-1.18 1.1-2.02a15 15 0 0 0 .4-4.39l.68-.38 1.22 6.9-17.8 9.9-.36-.63.82-.46c.55-.3.99-.72 1.33-1.25.27-.38.36-.8.3-1.23a9.2 9.2 0 0 0-1.05-2.34l-8.34-15.02c-.81-1.46-1.46-2.29-1.95-2.46-.66-.23-1.47-.08-2.42.45l-.82.46-.35-.63 17.81-9.9 3.07 4.93-.67.36a9.14 9.14 0 0 0-2.18-2.06c-.54-.3-1.17-.4-1.87-.33-.55.09-1.4.45-2.54 1.08l-6.34 3.52zM253.75 246.6l-5.3 4.66-14.88-3.35a43.05 43.05 0 0 1-1.6 1.45l-.48.38 5.08 5.76c1.1 1.25 1.92 1.9 2.46 1.96.75.1 1.5-.17 2.24-.82l.77-.68.48.54-8.5 7.49-.48-.55.75-.65c.84-.74 1.2-1.54 1.08-2.4-.07-.49-.6-1.3-1.6-2.43l-11.28-12.81c-1.1-1.25-1.92-1.9-2.46-1.96-.76-.1-1.52.19-2.27.85l-.74.66-.48-.55 7.23-6.36c2.1-1.86 3.79-3.08 5.06-3.65a7.11 7.11 0 0 1 4.04-.54c1.42.2 2.64.88 3.64 2.02a6.17 6.17 0 0 1 1.6 4.22c0 1.6-.67 3.32-2 5.16l9.1 2.08c2.09.48 3.66.64 4.7.48a8.1 8.1 0 0 0 3.36-1.5l.48.54zm-23.07 2.22a19.62 19.62 0 0 1 .83-.71c1.9-1.67 2.96-3.33 3.2-5a5.24 5.24 0 0 0-1.32-4.4 5.45 5.45 0 0 0-3.82-2 5.55 5.55 0 0 0-4.1 1.56 17.2 17.2 0 0 0-2.06 2.3l7.27 8.25zM245.89 212.3l7.32 5.47-.43.58a11.4 11.4 0 0 0-4.11-1.5 7.16 7.16 0 0 0-6.34 2.82 4.72 4.72 0 0 0-1.02 3.41c.13 1.2.62 2.12 1.46 2.75.65.49 1.4.7 2.27.65 1.26-.06 3.45-.82 6.56-2.27a39.75 39.75 0 0 1 5.48-2.22c1.1-.3 2.2-.36 3.25-.17a6.84 6.84 0 0 1 5.6 6.19 8.43 8.43 0 0 1-1.84 6.1c-.46.61-.94 1.15-1.44 1.63-.29.28-.98.8-2.07 1.58a11.25 11.25 0 0 0-1.93 1.56c-.2.26-.27.52-.23.79.05.27.29.62.72 1.06l-.43.57-7.26-5.42.43-.58c1.72.86 3.13 1.35 4.23 1.46 1.1.1 2.25-.13 3.45-.7a8.13 8.13 0 0 0 3.07-2.53 5.5 5.5 0 0 0 1.27-3.86 3.99 3.99 0 0 0-3.48-3.7 5.86 5.86 0 0 0-2.48.22c-.62.18-2.11.79-4.48 1.84a40.17 40.17 0 0 1-5.32 2.05c-1.18.31-2.28.4-3.3.25a6.5 6.5 0 0 1-5.47-5.89 7.78 7.78 0 0 1 1.68-5.69c.84-1.12 2.01-2.1 3.5-2.95.7-.39 1.14-.7 1.32-.94.2-.27.28-.56.25-.85-.03-.29-.25-.67-.66-1.14l.43-.58zM31.58 107.02l7.17 2.8c1.55.6 2.58.8 3.09.6.71-.24 1.25-.84 1.61-1.77l.37-.94.67.26-4.1 10.55-.68-.26.37-.92c.4-1.05.35-1.92-.15-2.64-.28-.38-1.13-.85-2.53-1.4l-15.92-6.18c-1.55-.6-2.58-.82-3.08-.64-.72.27-1.26.87-1.62 1.8l-.36.93-.67-.26 3.51-9.04c.86-2.2 1.76-3.85 2.7-4.95a7.7 7.7 0 0 1 3.56-2.32 6.34 6.34 0 0 1 4.34.18 6.93 6.93 0 0 1 4.13 3.9c.75 1.82.65 3.94-.3 6.36a17 17 0 0 1-.87 1.88c-.35.65-.77 1.34-1.24 2.06zm-1.04-.4c.37-.6.68-1.13.94-1.6.25-.47.45-.89.58-1.24a4.64 4.64 0 0 0-.2-3.83 5.7 5.7 0 0 0-3.25-2.84 7.3 7.3 0 0 0-3.22-.5c-1.09.08-2.01.43-2.78 1.05a5.8 5.8 0 0 0-1.74 2.46c-.24.62-.43 1.46-.58 2.52l10.25 3.98zM31.31 78.38l8.8 5.64 3.13-4.89c.82-1.27 1.17-2.24 1.06-2.9-.14-.9-.82-1.79-2.05-2.66l.39-.61 7.75 4.96-.4.61a10.06 10.06 0 0 0-2.37-.88c-.51-.04-1.02.09-1.53.4-.5.3-1.05.92-1.65 1.85l-3.13 4.9 7.33 4.7c.99.63 1.61.97 1.88 1.02.27.05.54 0 .8-.14.27-.13.6-.51 1-1.12l2.41-3.78c.81-1.26 1.3-2.23 1.5-2.9.19-.69.2-1.46.02-2.31a15.01 15.01 0 0 0-1.74-4.05l.42-.66 4.35 5.5-11 17.15-.6-.4.5-.78c.34-.52.54-1.1.59-1.73.05-.47-.06-.87-.33-1.22a9.15 9.15 0 0 0-2.03-1.57l-14.46-9.27c-1.41-.9-2.37-1.32-2.88-1.25-.7.12-1.33.63-1.92 1.55l-.5.79-.62-.39 11-17.15 5.03 2.88-.4.64a9.12 9.12 0 0 0-2.91-.78c-.62 0-1.22.2-1.8.6a8.83 8.83 0 0 0-1.73 2.15l-3.9 6.1zM41.36 60.4l5.11-5.02 25.43 2.8L61.2 47.3c-1.13-1.16-1.97-1.75-2.51-1.79-.73-.05-1.46.3-2.2 1.02l-.66.64-.5-.51 6.56-6.45.5.51-.66.66c-.8.78-1.13 1.58-.99 2.39.09.5.65 1.27 1.7 2.33l15.62 15.88-.5.5-27.36-2.96 11.42 11.6c1.14 1.16 1.97 1.76 2.5 1.8.74.05 1.48-.3 2.2-1.01l.67-.66.51.51-6.56 6.46-.5-.52.65-.64c.8-.8 1.14-1.6 1-2.4-.1-.5-.66-1.28-1.7-2.33L47.5 59.24c-1.17-.1-2-.12-2.48-.05a6.4 6.4 0 0 0-1.8.65c-.36.19-.8.55-1.35 1.08l-.51-.51zM80.58 58.95l-.37-.62.86-.5c.96-.57 1.46-1.29 1.5-2.14.02-.52-.35-1.42-1.11-2.7L72.74 38.3c-.84-1.42-1.53-2.22-2.05-2.39-.73-.23-1.53-.1-2.39.42l-.85.5-.37-.61 9.25-5.5c3.4-2.02 6.21-3.17 8.44-3.45 2.23-.28 4.42.16 6.56 1.32a13.83 13.83 0 0 1 5.33 5.27c1.87 3.16 2.48 6.38 1.82 9.64-.75 3.65-3.33 6.79-7.74 9.41l-10.16 6.03zm5.51-5.5c1.6-.52 2.89-1.07 3.85-1.64a9.86 9.86 0 0 0 4.83-6.57c.63-2.84.02-5.81-1.84-8.93-1.86-3.14-4.19-5.1-6.97-5.9-2.79-.8-5.52-.4-8.2 1.2-1 .6-2.06 1.44-3.15 2.52L86.1 53.46zM123.65 31.21l.65-.06.04 7.52-19.5 6.25-.21-.69.94-.3c1.07-.34 1.72-.93 1.95-1.77.13-.48-.03-1.44-.49-2.88l-5.2-16.24c-.51-1.57-1-2.5-1.47-2.79-.66-.39-1.47-.43-2.42-.12l-.95.3-.22-.68 11.4-3.66.22.69a7.3 7.3 0 0 0-2.69 1.27c-.46.43-.72.88-.79 1.34-.07.46.13 1.44.61 2.93l5.08 15.82a5.4 5.4 0 0 0 .97 2.02c.23.21.52.33.87.36.35.02 1.34-.23 2.96-.75l1.84-.59c1.93-.62 3.24-1.2 3.92-1.73a5.56 5.56 0 0 0 1.65-2.2c.42-.92.7-2.27.84-4.04zM132.43 12.14l1.06 10.4 5.78-.6c1.5-.15 2.48-.48 2.94-.98.6-.66.87-1.75.8-3.26l.72-.07.93 9.15-.72.08a10.07 10.07 0 0 0-.79-2.41c-.28-.43-.7-.75-1.25-.95a5.87 5.87 0 0 0-2.49-.14l-5.78.6.9 8.66a8.1 8.1 0 0 0 .36 2.1c.13.25.34.43.6.55.28.13.78.15 1.5.08l4.47-.46c1.48-.15 2.55-.37 3.2-.64a4.86 4.86 0 0 0 1.82-1.42c.72-.89 1.41-2.18 2.09-3.88l.78-.08-1.6 6.83-20.27 2.07-.07-.72.93-.1a3.7 3.7 0 0 0 1.72-.62c.4-.25.64-.59.75-1.02.1-.43.1-1.28-.04-2.56l-1.75-17.08c-.17-1.67-.44-2.68-.82-3.04-.51-.47-1.32-.65-2.4-.53l-.93.09-.08-.72 20.27-2.07.88 5.73-.76.08a9.12 9.12 0 0 0-1.2-2.76 3.11 3.11 0 0 0-1.58-1.04 8.83 8.83 0 0 0-2.76 0l-7.21.73zM173.85 12.93l-1.94 10.2 4.73.9c1.09.22 1.93.13 2.52-.26.6-.38 1.11-1.26 1.55-2.65l.7.14-1.67 8.79-.7-.14c.17-1 .18-1.77.02-2.3a2.52 2.52 0 0 0-.83-1.25 4.34 4.34 0 0 0-1.9-.73l-4.72-.9-1.56 8.16a8.75 8.75 0 0 0-.24 2.65c.06.34.28.67.64.98.5.4 1.07.67 1.68.79l.94.18-.14.7-11.14-2.11.13-.71.92.17c1.07.2 1.91.04 2.52-.5.38-.34.72-1.3 1.02-2.85l3.2-16.78a8.8 8.8 0 0 0 .24-2.65 1.76 1.76 0 0 0-.63-.97 3.62 3.62 0 0 0-1.67-.8l-.92-.18.13-.7 19.32 3.68-.83 5.75-.67-.13a8 8 0 0 0-.65-2.89 3.87 3.87 0 0 0-1.4-1.55c-.6-.37-1.57-.7-2.92-.95l-5.73-1.09zM206.44 20.46a12 12 0 0 1 6.65 7.11 13.5 13.5 0 0 1-.39 10.46c-1.59 3.69-4.07 6.25-7.44 7.69a12.26 12.26 0 0 1-10.03.02 12.2 12.2 0 0 1-6.9-7.19c-1.24-3.35-1.06-6.92.56-10.69 1.66-3.86 4.32-6.44 8-7.75a12.65 12.65 0 0 1 9.55.35zm-.9 1.16a6.97 6.97 0 0 0-6.28.17c-2.5 1.3-4.57 3.9-6.24 7.76-1.7 3.97-2.16 7.38-1.39 10.25a6.84 6.84 0 0 0 4.12 4.65c2.28.98 4.54.9 6.8-.24 2.24-1.14 4.2-3.63 5.84-7.46 1.79-4.16 2.3-7.6 1.54-10.35-.61-2.19-2.08-3.78-4.4-4.78zM229.57 66.65l-5.66-4.2.2-15.26a43.05 43.05 0 0 1-1.76-1.27l-.47-.39-4.58 6.17c-1 1.33-1.46 2.27-1.41 2.81.05.75.48 1.43 1.27 2.01l.83.62-.43.58-9.1-6.76.44-.58.8.6c.9.66 1.75.85 2.57.55.46-.16 1.14-.85 2.04-2.06l10.2-13.7c.99-1.33 1.46-2.27 1.4-2.81-.06-.76-.5-1.44-1.3-2.04l-.8-.6.44-.57 7.72 5.75c2.26 1.67 3.8 3.07 4.62 4.2a7.1 7.1 0 0 1 1.37 3.83 5.89 5.89 0 0 1-1.23 3.99 6.17 6.17 0 0 1-3.8 2.44c-1.56.33-3.38.03-5.46-.9l-.14 9.34c-.04 2.14.13 3.71.5 4.7a8.1 8.1 0 0 0 2.17 2.98l-.43.57zm-6.95-22.1a17.17 17.17 0 0 1 .86.67c2.02 1.5 3.87 2.2 5.55 2.08a5.24 5.24 0 0 0 4.03-2.2 5.45 5.45 0 0 0 1.16-4.15 5.55 5.55 0 0 0-2.37-3.7c-.6-.44-1.5-.95-2.67-1.52l-6.56 8.82z" fill="#fff" fill-rule="nonzero"/><path d="M253 55.91l-7.89 6.86 3.82 4.38c.99 1.14 1.82 1.75 2.5 1.84.9.11 1.93-.3 3.12-1.23l.47.55-6.93 6.04-.48-.54c.85-.99 1.36-1.66 1.5-2.04.2-.48.22-1 .06-1.57a5.87 5.87 0 0 0-1.32-2.11l-3.81-4.38-6.57 5.72a8.09 8.09 0 0 0-1.51 1.52c-.12.25-.16.51-.1.8.06.3.33.72.8 1.27l2.95 3.38a12.15 12.15 0 0 0 2.37 2.26c.6.37 1.34.59 2.21.66a15 15 0 0 0 4.38-.53l.5.59-6.49 2.63-13.38-15.36.55-.47.61.7c.41.47.91.82 1.5 1.04.43.18.85.19 1.27.03a9.2 9.2 0 0 0 2.07-1.5l12.95-11.29c1.27-1.1 1.93-1.9 2-2.42.1-.69-.22-1.45-.94-2.27l-.62-.7.55-.48 13.38 15.36-4.18 4.03-.5-.58a9.15 9.15 0 0 0 1.57-2.56c.17-.6.15-1.22-.07-1.9a8.82 8.82 0 0 0-1.59-2.26L253 55.91zM276.83 86.53l-7.94 4.53-.36-.62a11.38 11.38 0 0 0 3.02-3.17c.6-1.04.9-2.2.87-3.47a7.14 7.14 0 0 0-.92-3.47 4.72 4.72 0 0 0-2.74-2.3 3.77 3.77 0 0 0-3.1.24c-.7.4-1.2 1-1.5 1.82-.45 1.19-.63 3.5-.54 6.93.07 2.8.02 4.77-.14 5.9a7.43 7.43 0 0 1-1.14 3.06 6.84 6.84 0 0 1-7.91 2.67 8.44 8.44 0 0 1-4.87-4.13c-.38-.66-.68-1.32-.92-1.96-.14-.39-.35-1.23-.62-2.53-.27-1.3-.5-2.1-.66-2.4a1.02 1.02 0 0 0-.63-.52c-.27-.07-.69 0-1.26.23l-.36-.62 7.87-4.5.36.63a12.8 12.8 0 0 0-3.02 3.3 6.56 6.56 0 0 0-.74 3.44c.04 1.33.4 2.6 1.1 3.82a5.5 5.5 0 0 0 3.03 2.71 3.98 3.98 0 0 0 4.78-1.72c.4-.64.66-1.43.79-2.37.08-.63.12-2.24.1-4.83-.02-2.6.06-4.5.24-5.7.18-1.2.54-2.24 1.09-3.12a6.51 6.51 0 0 1 7.58-2.67 7.78 7.78 0 0 1 4.54 3.81c.7 1.22 1.14 2.68 1.32 4.39.07.8.19 1.32.34 1.58.16.3.39.48.67.57.28.09.72.03 1.31-.16l.36.63zM287.5 116.4l-5.8 2.23-.24-.7c1-.48 1.68-.91 2.04-1.3a3.9 3.9 0 0 0 1.08-2.04 5.6 5.6 0 0 0-.32-2.68l-1.17-3.54-19.17 6.33c-1.55.51-2.45 1-2.73 1.46-.36.64-.38 1.44-.06 2.42l.29.87-.69.23-3.51-10.65.68-.23.3.9c.35 1.05.92 1.7 1.7 1.93.49.14 1.44-.02 2.84-.48l19.18-6.33-1-3.02a8.86 8.86 0 0 0-1.08-2.41 3.61 3.61 0 0 0-1.9-1.2 5.76 5.76 0 0 0-2.96.07l-.24-.7 5.99-1.65 6.76 20.5z" fill="#fff" fill-rule="nonzero"/></g></svg>